<?xml version="1.0" encoding="UTF-8" standalone="no"?>
<!-- Created with Inkscape (http://www.inkscape.org/) -->

<svg
   width="6.350039mm"
   height="4.3868341mm"
   viewBox="0 0 6.3500389 4.3868342"
   version="1.1"
   id="svg1"
   xml:space="preserve"
   inkscape:version="1.3 (0e150ed6c4, 2023-07-21)"
   sodipodi:docname="logo.svg"
   xmlns:inkscape="http://www.inkscape.org/namespaces/inkscape"
   xmlns:sodipodi="http://sodipodi.sourceforge.net/DTD/sodipodi-0.dtd"
   xmlns="http://www.w3.org/2000/svg"
   xmlns:svg="http://www.w3.org/2000/svg"><sodipodi:namedview
     id="namedview1"
     pagecolor="#ffffff"
     bordercolor="#666666"
     borderopacity="1.0"
     inkscape:showpageshadow="2"
     inkscape:pageopacity="0.0"
     inkscape:pagecheckerboard="0"
     inkscape:deskcolor="#d1d1d1"
     inkscape:document-units="mm"
     inkscape:zoom="52.054321"
     inkscape:cx="21.131771"
     inkscape:cy="12.794327"
     inkscape:window-width="3840"
     inkscape:window-height="2054"
     inkscape:window-x="3829"
     inkscape:window-y="-11"
     inkscape:window-maximized="1"
     inkscape:current-layer="layer1" /><defs
     id="defs1" /><g
     inkscape:label="Layer 1"
     inkscape:groupmode="layer"
     id="layer1"
     transform="translate(-8.2004722,-67.99063)"><path
       style="fill:#000000;stroke-width:1"
       d="m 10.362434,72.375664 c -0.05562,-0.0047 -0.311254,-0.03756 -0.3806588,-0.04889 -0.031648,-0.0052 -0.081443,-0.01279 -0.1106565,-0.01694 C 9.7884849,72.298091 9.6524958,72.262402 9.5192764,72.21749 9.3654767,72.165641 9.3558424,72.1617 9.2116058,72.091648 9.0036484,71.990647 8.9691649,71.971524 8.9264603,71.933517 c -0.022936,-0.02041 -0.054995,-0.04342 -0.071242,-0.05113 -0.06177,-0.02931 -0.3570447,-0.32234 -0.3864941,-0.383554 -0.00971,-0.02018 -0.036752,-0.06227 -0.060094,-0.09354 -0.023342,-0.03126 -0.050892,-0.0765 -0.061223,-0.100518 -0.099589,-0.23157 -0.1291369,-0.332043 -0.144319,-0.490729 -0.00814,-0.08512 0.00367,-0.284559 0.022246,-0.375648 0.014198,-0.06961 0.052806,-0.195746 0.06521,-0.213044 0.00349,-0.0049 0.013427,-0.03275 0.02208,-0.06197 0.016168,-0.05459 0.081603,-0.185805 0.123118,-0.246893 0.01287,-0.01894 0.0234,-0.04149 0.0234,-0.05013 0,-0.01262 0.087599,-0.138946 0.1338762,-0.193067 0.00567,-0.0066 0.02407,-0.03053 0.040892,-0.05312 0.034894,-0.04685 0.074326,-0.08838 0.2490887,-0.262375 0.1460484,-0.145407 0.1962533,-0.190042 0.244508,-0.217382 0.019475,-0.01104 0.051344,-0.03461 0.07082,-0.05238 0.019476,-0.01778 0.051345,-0.04364 0.07082,-0.05748 0.019476,-0.01384 0.043377,-0.03275 0.053115,-0.04203 0.024228,-0.02307 0.1216854,-0.08607 0.133629,-0.08638 0.00533,-1.33e-4 0.016904,-0.0082 0.025716,-0.01796 0.00881,-0.0097 0.019853,-0.0177 0.024534,-0.0177 0.00468,0 0.050154,-0.02589 0.1010506,-0.05754 0.050897,-0.03165 0.095844,-0.05754 0.099884,-0.05754 0.00404,0 0.028659,-0.01436 0.05471,-0.03192 0.026051,-0.01756 0.07525,-0.04316 0.1093329,-0.0569 0.034082,-0.01374 0.1296894,-0.0588 0.2124604,-0.100134 0.08277,-0.04134 0.166428,-0.07801 0.185903,-0.08149 0.03116,-0.0056 0.09803,-0.02924 0.234592,-0.08305 0.0663,-0.02612 0.160699,-0.05555 0.216887,-0.06761 0.02921,-0.0063 0.081,-0.01986 0.115083,-0.0302 0.05676,-0.01722 0.153822,-0.03906 0.278854,-0.06276 0.02678,-0.0051 0.07324,-0.01498 0.103257,-0.02201 0.03001,-0.007 0.06587,-0.0128 0.07967,-0.01282 0.01381,-1.9e-5 0.08287,-0.0096 0.153467,-0.02125 0.209547,-0.03463 0.357802,-0.04398 0.587152,-0.03703 0.270111,0.0082 0.249394,0.0064 0.559249,0.04912 0.171381,0.02365 0.607265,0.156211 0.69935,0.212689 0.01461,0.009 0.04847,0.028 0.07525,0.04232 0.142766,0.07632 0.191017,0.107057 0.235126,0.149779 0.02671,0.02587 0.05294,0.04703 0.0583,0.04703 0.01753,0 0.186902,0.180149 0.228877,0.243444 0.0073,0.01101 0.02449,0.03416 0.03819,0.05143 0.03459,0.04361 0.108459,0.197113 0.138799,0.288445 0.05615,0.169016 0.07377,0.36035 0.04953,0.537873 -0.01582,0.115877 -0.05315,0.255465 -0.08842,0.330624 -0.01257,0.02678 -0.02289,0.05286 -0.02293,0.05797 -2.68e-4,0.02728 -0.124634,0.2445 -0.199268,0.348002 -0.04341,0.0602 -0.111741,0.146007 -0.13179,0.165491 -0.01029,0.01 -0.06053,0.06311 -0.111655,0.118023 -0.05112,0.05492 -0.101412,0.104498 -0.111752,0.110184 -0.01771,0.0097 -0.0602,0.04526 -0.166472,0.13914 -0.02507,0.02215 -0.07033,0.05531 -0.100569,0.07367 -0.03024,0.01837 -0.05498,0.03618 -0.05498,0.03958 0,0.0034 -0.01892,0.01603 -0.04205,0.02807 -0.02313,0.01204 -0.06174,0.03586 -0.08581,0.05293 -0.06056,0.04296 -0.157719,0.100055 -0.226237,0.132959 -0.03165,0.0152 -0.07945,0.03898 -0.10623,0.05284 -0.121607,0.06297 -0.332998,0.149519 -0.424921,0.173975 -0.02678,0.0071 -0.05666,0.0164 -0.06639,0.02061 -0.0097,0.0042 -0.07348,0.02539 -0.14164,0.04707 -0.107537,0.0342 -0.179289,0.04976 -0.438783,0.09515 -0.09131,0.01597 -0.348172,0.03507 -0.473027,0.03516 -0.252337,2e-4 -0.612595,-0.0533 -0.768744,-0.114148 -0.02513,-0.0098 -0.08876,-0.03414 -0.141414,-0.05411 -0.120026,-0.04553 -0.2817209,-0.128291 -0.3637668,-0.186188 -0.034543,-0.02438 -0.085764,-0.0598 -0.1138243,-0.07872 -0.02806,-0.01892 -0.062522,-0.04572 -0.076582,-0.05955 -0.014061,-0.01384 -0.029825,-0.02914 -0.035031,-0.03401 -0.052336,-0.04894 -0.1550734,-0.162998 -0.1711649,-0.19002 -0.011168,-0.01875 -0.04284,-0.07131 -0.070382,-0.116795 -0.033186,-0.0548 -0.057794,-0.109348 -0.072954,-0.161711 -0.012582,-0.04346 -0.021652,-0.08024 -0.020156,-0.08173 0.0015,-0.0015 0.015403,9.16e-4 0.030904,0.0054 0.030499,0.0087 0.036659,8.16e-4 0.013984,-0.018 -0.00781,-0.0065 -0.017841,-0.02136 -0.022289,-0.03306 -0.00571,-0.01503 -0.013025,-0.01998 -0.024904,-0.01687 -0.01452,0.0038 -0.018125,-0.0031 -0.0264,-0.05064 -0.013549,-0.0778 -0.011837,-0.182042 0.00451,-0.274896 0.00772,-0.04382 0.017089,-0.0976 0.020828,-0.11951 0.00374,-0.02191 0.01525,-0.05776 0.025579,-0.07967 0.010329,-0.02191 0.018867,-0.04587 0.018974,-0.05323 6.457e-4,-0.04442 0.1670284,-0.325064 0.2387317,-0.402671 0.017994,-0.01948 0.049868,-0.05648 0.070832,-0.08224 0.020963,-0.02575 0.048586,-0.05224 0.061383,-0.05886 0.012798,-0.0066 0.039052,-0.03162 0.058342,-0.05557 0.01929,-0.02394 0.062467,-0.06115 0.095947,-0.08269 0.03348,-0.02154 0.064548,-0.04602 0.06904,-0.05441 0.010261,-0.01917 0.2131223,-0.152243 0.3177283,-0.208419 0.02191,-0.01177 0.05776,-0.03272 0.07967,-0.04656 0.02191,-0.01384 0.05776,-0.03206 0.07967,-0.04049 0.02191,-0.0084 0.04581,-0.02003 0.05312,-0.02577 0.0073,-0.0057 0.02722,-0.01577 0.04426,-0.02228 0.01704,-0.0065 0.0676,-0.02908 0.112363,-0.05015 0.04476,-0.02107 0.0895,-0.03831 0.09942,-0.03831 0.0099,0 0.04301,-0.0097 0.07354,-0.02149 0.06312,-0.02444 0.272208,-0.08925 0.312226,-0.09678 0.01461,-0.0028 0.05444,-0.01112 0.08853,-0.01859 0.265795,-0.05832 0.559624,-0.09262 0.678342,-0.07919 l 0.05199,0.0059 9.27e-4,0.03205 c 5.09e-4,0.01763 3.72e-4,0.05789 -3.01e-4,0.08946 -8.36e-4,0.03888 0.0017,0.0545 0.0078,0.04841 0.0049,-0.0049 0.0095,-0.04572 0.01009,-0.0906 l 0.0011,-0.08161 h 0.07377 c 0.0932,0 0.294291,0.03449 0.437347,0.07502 0.06061,0.01717 0.113783,0.03121 0.118171,0.03121 0.0044,0 0.02053,0.0056 0.03587,0.01252 0.01534,0.0069 0.04383,0.01739 0.06331,0.02335 0.06104,0.01868 0.291106,0.13864 0.314278,0.163873 0.01216,0.01325 0.04405,0.04045 0.07085,0.06045 0.127562,0.09519 0.236147,0.24756 0.28687,0.402542 0.07118,0.217473 0.06378,0.39094 -0.02655,0.622684 -0.04451,0.114187 -0.08377,0.190626 -0.130297,0.253682 -0.02285,0.03097 -0.04155,0.05954 -0.04155,0.06349 0,0.02525 -0.285687,0.318007 -0.337446,0.345796 -0.02311,0.01241 -0.06613,0.04481 -0.117783,0.08871 -0.01498,0.01273 -0.05032,0.03663 -0.07854,0.05312 -0.02822,0.01648 -0.07204,0.04285 -0.09738,0.0586 -0.02534,0.01575 -0.06798,0.03871 -0.09476,0.05103 -0.02678,0.01232 -0.07458,0.03578 -0.10623,0.05215 -0.08194,0.04236 -0.320723,0.13361 -0.393937,0.15054 -0.03408,0.0079 -0.09185,0.02237 -0.128362,0.03221 -0.11822,0.03183 -0.365389,0.07867 -0.442626,0.08386 -0.04139,0.0028 -0.08995,0.0069 -0.10793,0.0092 -0.02898,0.0036 -0.03448,0.0011 -0.04852,-0.02271 -0.02147,-0.03634 -0.09219,-0.07062 -0.145701,-0.07062 -0.05504,0 -0.08484,0.01201 -0.123872,0.04992 l -0.03208,0.03117 -0.09426,-0.02272 c -0.05184,-0.01249 -0.122475,-0.03472 -0.15696,-0.0494 -0.03449,-0.01467 -0.06822,-0.02668 -0.07498,-0.02668 -0.01544,0 -0.136244,-0.05255 -0.15407,-0.06702 -0.0073,-0.0059 -0.04576,-0.02865 -0.08546,-0.05049 -0.09356,-0.05147 -0.231228,-0.166106 -0.299624,-0.249504 -0.06168,-0.07521 -0.082214,-0.109219 -0.1311717,-0.217258 -0.054875,-0.121095 -0.070697,-0.190574 -0.065847,-0.289148 0.00559,-0.113665 0.054595,-0.266976 0.1318002,-0.412358 0.00968,-0.01823 0.030273,-0.05694 0.04576,-0.08603 0.01549,-0.02909 0.05117,-0.07791 0.0793,-0.108499 0.03843,-0.04179 0.04667,-0.04791 0.03319,-0.02463 -0.0099,0.01704 -0.02636,0.04891 -0.03665,0.07082 -0.01029,0.02191 -0.03895,0.08088 -0.06371,0.131033 -0.044394,0.08997 -0.045118,0.09277 -0.053646,0.207426 -0.00968,0.130187 0.00122,0.269831 0.025774,0.329907 0.026456,0.06475 0.086177,0.181141 0.1078875,0.210276 l 0.02142,0.02874 -0.0062,-0.02656 c -0.0034,-0.01461 -0.0092,-0.03253 -0.01289,-0.03984 -0.0037,-0.0073 -0.01357,-0.04714 -0.02201,-0.08853 -0.02207,-0.108229 -0.01425,-0.277766 0.01745,-0.378056 0.01263,-0.03995 0.02656,-0.07487 0.03095,-0.07758 0.0044,-0.0027 0.01288,-0.01982 0.01885,-0.03801 0.006,-0.01819 0.02069,-0.0487 0.03271,-0.0678 0.01202,-0.0191 0.03064,-0.05206 0.04137,-0.07324 0.02814,-0.0555 0.148771,-0.196891 0.209999,-0.246127 0.01211,-0.0097 0.0476,-0.04004 0.07886,-0.06735 0.03126,-0.0273 0.0668,-0.05267 0.07897,-0.05638 0.01217,-0.0037 0.02899,-0.01275 0.03738,-0.02011 0.03133,-0.0275 0.172972,-0.101356 0.237051,-0.123608 0.03652,-0.01268 0.07018,-0.02641 0.0748,-0.03051 0.0046,-0.0041 0.01459,-0.0074 0.02213,-0.0073 0.01529,1.33e-4 -0.04012,0.03347 -0.08808,0.05301 -0.01704,0.0069 -0.03895,0.02001 -0.04869,0.02903 -0.0097,0.009 -0.03065,0.02444 -0.04648,0.03425 -0.01582,0.0098 -0.02877,0.02077 -0.02877,0.02434 0,0.0036 -0.0239,0.01793 -0.05312,0.03189 -0.02921,0.01396 -0.05312,0.0283 -0.05312,0.03186 0,0.0036 -0.01943,0.02194 -0.04317,0.04085 -0.02374,0.01891 -0.06622,0.06207 -0.09439,0.09592 -0.02817,0.03385 -0.06812,0.07947 -0.08877,0.101379 -0.02065,0.02191 -0.0449,0.0538 -0.05389,0.07086 -0.009,0.01706 -0.02507,0.04324 -0.03574,0.05818 -0.03567,0.04994 -0.0925,0.192817 -0.110571,0.277994 -0.02375,0.111954 -0.01749,0.24208 0.0152,0.315994 0.012,0.02714 0.02182,0.05293 0.02182,0.0573 0,0.02112 0.08766,0.155128 0.124683,0.190608 0.07494,0.07182 0.205196,0.17104 0.224539,0.17104 0.0057,0 0.02609,0.0075 0.04527,0.01661 0.01917,0.0091 0.04482,0.01935 0.05699,0.02269 l 0.02213,0.0061 -0.02213,-0.01829 c -0.01217,-0.01006 -0.03209,-0.0209 -0.04426,-0.0241 -0.04035,-0.0106 -0.0835,-0.04397 -0.136721,-0.105719 -0.02894,-0.03357 -0.06279,-0.07156 -0.07524,-0.08441 -0.01245,-0.01286 -0.03776,-0.05269 -0.05625,-0.08853 -0.01849,-0.03583 -0.02745,-0.05691 -0.0199,-0.04684 0.04465,0.05962 0.216452,0.216418 0.27109,0.247418 0.09664,0.05483 0.216186,0.102203 0.313585,0.124263 0.03408,0.0077 0.09185,0.02154 0.128361,0.03071 0.156157,0.03923 0.318691,0.06236 0.318691,0.04536 0,-0.0049 -0.01295,-0.01783 -0.02877,-0.02869 -0.01582,-0.01085 -0.03937,-0.02945 -0.05232,-0.04134 -0.02343,-0.0215 -0.0236,-0.02151 -0.03331,-0.0034 -0.01943,0.0363 -0.09717,0.02977 -0.226423,-0.01904 -0.01948,-0.0074 -0.06199,-0.02308 -0.09448,-0.03495 -0.06609,-0.02415 -0.162737,-0.08689 -0.23162,-0.15037 -0.02514,-0.02316 -0.05267,-0.04214 -0.0612,-0.04217 -0.0086,-3e-5 -0.01572,-0.0069 -0.016,-0.01555 -2.68e-4,-0.0085 -0.01032,-0.02944 -0.02232,-0.04648 -0.05891,-0.0837 -0.07374,-0.110717 -0.09105,-0.16595 -0.03124,-0.09965 -0.03761,-0.187174 -0.02173,-0.298807 0.02281,-0.160362 0.08105,-0.268423 0.223448,-0.414557 0.128477,-0.131851 0.265437,-0.2236 0.431639,-0.289152 0.05268,-0.02078 0.113701,-0.04519 0.135611,-0.05425 0.192953,-0.07978 0.571527,-0.113136 0.796727,-0.0702 0.02678,0.0051 0.09265,0.0128 0.146378,0.01709 0.07942,0.0063 0.110872,0.01332 0.168198,0.03731 0.09778,0.04091 0.104168,0.03955 0.04838,-0.01028 -0.02678,-0.02392 -0.0521,-0.04353 -0.05627,-0.04358 -0.0042,-6.6e-5 -0.0221,-0.0114 -0.03984,-0.02522 -0.03841,-0.02991 -0.168278,-0.08627 -0.21816,-0.09467 -0.01948,-0.0033 -0.05533,-0.01146 -0.07967,-0.01818 -0.186506,-0.0515 -0.534177,-0.06474 -0.656436,-0.02501 -0.0136,0.0044 -0.01412,0.0037 -0.0031,-0.0043 0.01336,-0.0097 0.08711,-0.03343 0.234592,-0.07553 0.0929,-0.02652 0.165237,-0.02894 0.26115,-0.0087 0.04631,0.0098 0.08578,0.0122 0.13047,0.0081 0.117627,-0.01079 0.246515,0.01482 0.400343,0.07957 0.03045,0.01282 0.05724,0.02144 0.05952,0.01916 0.0045,-0.0045 -0.07438,-0.05905 -0.139286,-0.09634 -0.227789,-0.130878 -0.750005,-0.19686 -1.076462,-0.136011 -0.120117,0.02239 -0.326163,0.08625 -0.433801,0.134451 -0.01534,0.0069 -0.03149,0.01249 -0.03589,0.01249 -0.0044,0 -0.02571,0.01122 -0.04735,0.02494 -0.02165,0.01372 -0.05284,0.02963 -0.06933,0.03537 -0.03942,0.01372 -0.174575,0.09487 -0.211877,0.127216 -0.01617,0.01402 -0.05015,0.0372 -0.07551,0.05152 -0.07851,0.04431 -0.405859,0.380973 -0.4634415,0.476631 -0.010717,0.0178 -0.036611,0.04464 -0.057541,0.05964 -0.047714,0.03419 -0.081224,0.08265 -0.1005072,0.145357 -0.00824,0.02678 -0.022525,0.07169 -0.031757,0.09981 -0.036188,0.11022 -0.044688,0.173414 -0.038358,0.28519 0.00992,0.175232 0.066201,0.332666 0.1539562,0.430689 0.024593,0.02747 0.048912,0.05934 0.054043,0.07082 0.022006,0.04924 0.053316,0.09077 0.099431,0.131868 0.05283,0.04709 0.08682,0.06043 0.04987,0.01958 -0.04477,-0.04951 -0.04602,-0.05656 -0.0049,-0.02754 0.07558,0.05329 0.169136,0.113701 0.191761,0.123839 0.01217,0.0055 0.06672,0.03124 0.121226,0.0573 0.0545,0.02606 0.146408,0.06139 0.204233,0.07852 0.127649,0.03781 0.269667,0.06834 0.277733,0.0597 0.0033,-0.0035 0.0078,-0.0143 0.01017,-0.02403 0.0026,-0.01064 0.0047,-0.0053 0.0053,0.01341 0.0013,0.04063 0.03091,0.09537 0.06844,0.126661 0.03307,0.02758 0.0369,0.04527 0.01618,0.07484 -0.0128,0.01827 -0.01258,0.01968 0.0031,0.01968 0.0093,0 0.03468,-0.0095 0.05642,-0.02102 0.02174,-0.01156 0.04923,-0.02394 0.06107,-0.02751 0.01918,-0.0058 0.02009,-0.005 0.0083,0.0069 -0.0073,0.0074 -0.02915,0.02173 -0.04856,0.03193 -0.03737,0.01966 -0.03141,0.02493 0.01036,0.0091 0.02802,-0.01059 0.07356,-0.05092 0.07369,-0.06527 3.3e-5,-0.0052 0.01384,-0.02671 0.03065,-0.04785 0.01681,-0.02114 0.03297,-0.04604 0.03592,-0.05533 0.0042,-0.01338 0.01396,-0.01694 0.04681,-0.01717 0.04689,-3.35e-4 0.0918,-0.0059 0.311455,-0.03899 0.08521,-0.01282 0.182806,-0.03081 0.216887,-0.03997 0.195056,-0.05247 0.260012,-0.07171 0.28357,-0.08399 0.01445,-0.0075 0.02934,-0.01372 0.0331,-0.01375 0.02019,-1.68e-4 0.340541,-0.13051 0.360544,-0.146703 0.0073,-0.0059 0.03519,-0.01981 0.06197,-0.03089 0.02678,-0.01108 0.05734,-0.02785 0.06792,-0.03728 0.01058,-0.0094 0.04009,-0.02681 0.06559,-0.03862 0.0255,-0.01181 0.06066,-0.03352 0.07814,-0.04823 0.01748,-0.01472 0.05861,-0.04441 0.09139,-0.06598 0.105511,-0.06944 0.247802,-0.185255 0.343514,-0.279593 0.07946,-0.07832 0.124257,-0.131701 0.236877,-0.282263 0.0091,-0.01217 0.02567,-0.0406 0.03681,-0.06317 0.01114,-0.02257 0.02974,-0.05208 0.04132,-0.06556 0.01159,-0.01348 0.02107,-0.02893 0.02107,-0.03433 0,-0.0054 0.0082,-0.02506 0.01815,-0.04368 0.05377,-0.100324 0.08607,-0.220485 0.09627,-0.358124 0.01118,-0.150929 -0.0087,-0.322215 -0.046,-0.396413 -0.01202,-0.02392 -0.02481,-0.05344 -0.02841,-0.06561 -0.0036,-0.01217 -0.02583,-0.04883 -0.04939,-0.08146 -0.02356,-0.03263 -0.04871,-0.07069 -0.05589,-0.08458 -0.01569,-0.03035 -0.200915,-0.220135 -0.24434,-0.250364 l -0.03076,-0.02142 0.02624,0.03522 c 0.02413,0.03239 0.02163,0.0311 -0.0312,-0.01614 -0.03159,-0.02825 -0.07471,-0.05945 -0.09581,-0.06935 -0.0211,-0.0099 -0.05338,-0.03301 -0.07174,-0.05137 -0.04265,-0.04265 -0.08098,-0.06234 -0.0991,-0.05091 -0.0095,0.006 -0.03154,0.0013 -0.07477,-0.01612 -0.06275,-0.02524 -0.106119,-0.03762 -0.291434,-0.08322 -0.238189,-0.05861 -0.399906,-0.07649 -0.677217,-0.07489 -0.151805,8.79e-4 -0.228186,0.0055 -0.321119,0.01953 -0.06707,0.01011 -0.125417,0.02053 -0.12967,0.02316 -0.0043,0.0026 -0.03862,0.0091 -0.07637,0.01433 -0.03775,0.0053 -0.106876,0.01892 -0.153611,0.03039 -0.04674,0.01146 -0.116844,0.02708 -0.155795,0.0347 -0.0865,0.01693 -0.140491,0.03319 -0.26115,0.07868 -0.17446,0.06577 -0.201062,0.07647 -0.26769,0.107674 -0.03666,0.01717 -0.06883,0.03122 -0.07146,0.03122 -0.0026,0 -0.03499,0.01394 -0.07188,0.03098 -0.03689,0.01704 -0.06935,0.03098 -0.07213,0.03098 -0.0028,0 -0.03313,0.01668 -0.06744,0.03706 -0.03431,0.02038 -0.07377,0.04329 -0.08769,0.0509 -0.1414776,0.07738 -0.396365,0.254931 -0.4640405,0.323236 -0.014713,0.01485 -0.055545,0.04992 -0.090738,0.07794 -0.035194,0.02802 -0.063988,0.05623 -0.063988,0.06269 0,0.0065 -0.010545,0.01739 -0.023433,0.02428 -0.027883,0.01492 -0.1185095,0.11722 -0.1868669,0.210934 -0.026969,0.03697 -0.057959,0.07718 -0.068866,0.08936 -0.010907,0.01217 -0.022824,0.03209 -0.026482,0.04426 -0.00366,0.01217 -0.020412,0.0437 -0.03723,0.07007 -0.1350236,0.211678 -0.2059067,0.522067 -0.1699889,0.744363 0.010163,0.0629 0.062929,0.225237 0.089158,0.274297 0.00907,0.01697 0.016494,0.03534 0.016494,0.04083 0,0.0055 0.012421,0.02547 0.027601,0.04439 0.015181,0.01893 0.042892,0.05832 0.061579,0.08753 0.018687,0.02921 0.046423,0.06108 0.061635,0.07082 0.015212,0.0097 0.042276,0.03787 0.060143,0.06252 0.034701,0.04787 0.071162,0.08167 0.1328872,0.123194 0.05074,0.03413 0.089927,0.08274 0.089927,0.111544 0,0.01988 -0.015083,0.07695 -0.02286,0.08651 -0.00139,0.0017 -0.011409,-0.0052 -0.022264,-0.01529 -0.010856,-0.01011 -0.047968,-0.03711 -0.082471,-0.05999 -0.080476,-0.05337 -0.2219981,-0.182129 -0.2510437,-0.228404 -0.012365,-0.0197 -0.02969,-0.04379 -0.0385,-0.05352 -0.037704,-0.04168 -0.087455,-0.115822 -0.087455,-0.130337 0,-0.0087 -0.00398,-0.01573 -0.00885,-0.01573 -0.00487,0 -0.00885,-0.008 -0.00885,-0.01771 0,-0.01163 -0.0059,-0.0177 -0.017197,-0.0177 -0.012469,0 -0.016253,-0.0049 -0.013765,-0.01782 0.00189,-0.0098 -0.00799,-0.04665 -0.021939,-0.08189 -0.013954,-0.03524 -0.028167,-0.08582 -0.031584,-0.112401 -0.00342,-0.02658 -0.00942,-0.05447 -0.013333,-0.06197 -0.00392,-0.0075 -0.00928,-0.0206 -0.011914,-0.02912 -0.00264,-0.0085 -0.012887,-0.01549 -0.022777,-0.01549 -0.010083,0 -0.017983,-0.0058 -0.017983,-0.01328 0,-0.01679 0.00433,-0.01665 0.031295,10e-4 0.023899,0.01566 0.026905,0.01175 0.012151,-0.01582 -0.00754,-0.01408 -0.015349,-0.01693 -0.03541,-0.01292 -0.024469,0.0049 -0.025741,0.0036 -0.025741,-0.02561 0,-0.01692 0.00441,-0.03076 0.0098,-0.03076 0.00539,0 0.00751,-0.006 0.0047,-0.01328 -0.00342,-0.0089 3.948e-4,-0.01328 0.011599,-0.01328 0.011843,0 0.021192,0.01222 0.032169,0.04205 0.018488,0.05024 0.030253,0.06599 0.030253,0.04051 0,-0.0101 -0.0103,-0.03679 -0.022888,-0.05931 -0.017368,-0.03107 -0.028044,-0.04095 -0.044263,-0.04095 -0.023395,0 -0.025507,-0.01002 -0.021719,-0.103029 0.00103,-0.02519 -0.00244,-0.04814 -0.00775,-0.05142 -0.00676,-0.0042 -0.010003,0.04217 -0.010942,0.156143 -7.327e-4,0.08915 -4.751e-4,0.174032 5.721e-4,0.188639 0.0046,0.06402 0.058062,0.241197 0.08819,0.29226 0.00904,0.01533 0.021567,0.04339 0.027827,0.06236 0.00626,0.01897 0.0251,0.05401 0.041866,0.07786 0.016766,0.02385 0.034574,0.05581 0.039574,0.07102 0.010013,0.03046 0.013464,0.03439 0.1642273,0.186997 0.1108,0.112155 0.2511233,0.220379 0.364889,0.281419 0.2384363,0.127931 0.2781483,0.145448 0.4958384,0.218726 0.13836,0.04657 0.218416,0.06724 0.323117,0.0834 0.04869,0.0075 0.128113,0.0198 0.176499,0.02729 0.173764,0.02692 0.305313,0.03323 0.580391,0.02784 0.148501,-0.0029 0.295896,-0.0094 0.327543,-0.01443 0.03165,-0.005 0.102298,-0.01489 0.156999,-0.02192 0.214362,-0.02752 0.325127,-0.04983 0.480383,-0.09675 0.197212,-0.0596 0.36528,-0.11421 0.377196,-0.12256 0.0054,-0.0038 0.03129,-0.01434 0.05754,-0.02346 0.02625,-0.0091 0.06963,-0.02656 0.09641,-0.03875 0.02678,-0.01219 0.05859,-0.02519 0.0707,-0.02889 0.03884,-0.01187 0.186099,-0.08265 0.208325,-0.100132 0.01182,-0.0093 0.04392,-0.02601 0.07134,-0.03714 0.05265,-0.02137 0.115445,-0.05698 0.296087,-0.16792 0.08022,-0.04927 0.179331,-0.11685 0.203397,-0.138698 0.03358,-0.03048 0.160278,-0.12909 0.19033,-0.148129 0.04268,-0.02704 0.337268,-0.328543 0.359289,-0.367725 0.01105,-0.01966 0.02758,-0.03813 0.03673,-0.04103 0.0091,-0.0029 0.0232,-0.01988 0.03122,-0.03772 0.008,-0.01784 0.02643,-0.04532 0.04092,-0.06105 0.01448,-0.01574 0.03657,-0.04632 0.04909,-0.06796 0.01252,-0.02164 0.03917,-0.06653 0.05923,-0.09975 0.102159,-0.169178 0.170227,-0.337132 0.225392,-0.556138 0.01776,-0.07048 0.02011,-0.102133 0.02044,-0.274429 3.02e-4,-0.157069 -0.0027,-0.208459 -0.01567,-0.265575 -0.04586,-0.202488 -0.141405,-0.425603 -0.231358,-0.540291 -0.02661,-0.03392 -0.05539,-0.07349 -0.06396,-0.08792 -0.02227,-0.0375 -0.205354,-0.219589 -0.236422,-0.235135 -0.01435,-0.0072 -0.0383,-0.025 -0.05324,-0.03961 -0.07781,-0.07611 -0.27253,-0.189672 -0.416419,-0.242866 -0.04382,-0.0162 -0.116399,-0.04476 -0.161287,-0.06347 -0.04489,-0.01871 -0.09269,-0.03647 -0.10623,-0.03946 -0.01354,-0.003 -0.04254,-0.01063 -0.06445,-0.01696 -0.137462,-0.03972 -0.173719,-0.04943 -0.263002,-0.0704 -0.09778,-0.02296 -0.171586,-0.04829 -0.142709,-0.04896 0.01647,-3.86e-4 0.188598,0.03629 0.264071,0.05626 0.234733,0.06213 0.308142,0.08292 0.320781,0.09087 0.0062,0.0039 0.02911,0.01344 0.05102,0.02127 0.120607,0.04311 0.233969,0.08945 0.254961,0.104232 0.01314,0.0093 0.03385,0.01989 0.04602,0.02364 0.01217,0.0037 0.04291,0.02007 0.06831,0.03627 0.0254,0.0162 0.06549,0.03924 0.08908,0.05119 0.02359,0.01196 0.04826,0.02819 0.0548,0.03608 0.0065,0.0079 0.04285,0.03615 0.08067,0.0628 0.113507,0.07999 0.306539,0.280088 0.358181,0.371291 0.01379,0.02435 0.03572,0.05672 0.04874,0.07195 0.01302,0.01523 0.02921,0.04112 0.03596,0.05753 0.0068,0.01642 0.02657,0.05774 0.04403,0.09182 0.01746,0.03409 0.03457,0.07393 0.03804,0.08853 0.0035,0.01461 0.01377,0.04648 0.0229,0.07082 0.0091,0.02434 0.02317,0.07812 0.0312,0.119509 0.008,0.04139 0.01858,0.0906 0.02345,0.109356 0.01131,0.04359 0.01112,0.319729 -2.68e-4,0.395238 -0.01241,0.08226 -0.043,0.219689 -0.05812,0.261149 -0.0071,0.01947 -0.01311,0.04338 -0.01336,0.05312 -2.35e-4,0.0097 -0.0065,0.02934 -0.01392,0.04356 -0.01734,0.03326 -0.0537,0.1205 -0.07511,0.18023 -0.0092,0.0257 -0.03446,0.07351 -0.05611,0.10623 -0.02164,0.03272 -0.04223,0.06945 -0.04574,0.08163 -0.0068,0.02355 -0.06902,0.115906 -0.114198,0.169515 -0.01497,0.01777 -0.03887,0.05122 -0.05312,0.07434 -0.03507,0.05695 -0.09629,0.126797 -0.217553,0.248205 -0.16947,0.169677 -0.197296,0.195675 -0.245699,0.229559 -0.02559,0.01791 -0.04949,0.0376 -0.05312,0.04376 -0.006,0.01024 -0.106162,0.0854 -0.200977,0.150851 -0.02116,0.01461 -0.06316,0.04548 -0.09333,0.06861 -0.03017,0.02313 -0.05883,0.04205 -0.06368,0.04205 -0.0049,0 -0.0413,0.02095 -0.08101,0.04655 -0.09778,0.06306 -0.09472,0.06129 -0.204976,0.118468 -0.28929,0.150017 -0.465355,0.228449 -0.593119,0.264215 -0.02921,0.0082 -0.06905,0.02177 -0.08853,0.03021 -0.06769,0.02933 -0.213781,0.07804 -0.354101,0.118062 -0.03408,0.0097 -0.08786,0.0251 -0.119509,0.03419 -0.160014,0.04592 -0.369456,0.09028 -0.517872,0.109687 -0.0633,0.0083 -0.170854,0.02299 -0.239018,0.03269 -0.0953,0.01356 -0.183242,0.01826 -0.380659,0.02034 -0.141198,0.0015 -0.274649,0.0012 -0.296559,-6.79e-4 z m 0.513446,-1.352635 c 0,-0.0019 -0.006,-0.0058 -0.01328,-0.0086 -0.0073,-0.0028 -0.01328,-0.0012 -0.01328,0.0035 0,0.0047 0.006,0.0086 0.01328,0.0086 0.0073,0 0.01328,-0.0016 0.01328,-0.0035 z m 0.801153,-0.03717 c 0.04382,-0.0077 0.09117,-0.01619 0.105218,-0.01885 0.01809,-0.0034 0.0279,-6.13e-4 0.03364,0.0096 0.0102,0.01823 0.05883,0.01902 0.100449,0.0016 0.0593,-0.02478 0.02695,-0.05141 -0.03411,-0.02808 -0.04335,0.01655 -0.05027,0.01741 -0.05027,0.0062 0,-0.0045 0.01992,-0.01476 0.04426,-0.02284 0.02434,-0.0081 0.04426,-0.0183 0.04426,-0.02269 0,-0.0044 0.02091,-0.01848 0.04648,-0.03129 0.0693,-0.03474 0.185687,-0.158492 0.227645,-0.242034 0.06445,-0.128327 0.08592,-0.258256 0.06149,-0.372165 -0.01786,-0.08329 -0.0752,-0.201897 -0.126839,-0.262391 -0.06253,-0.07325 -0.07942,-0.08699 -0.189702,-0.15439 -0.09841,-0.06014 -0.12391,-0.06766 -0.258084,-0.07606 -0.04139,-0.0026 -0.07903,-0.0083 -0.08366,-0.01275 -0.0046,-0.0044 -0.01538,-0.008 -0.02391,-0.008 -0.0085,0 -0.01901,-0.0063 -0.0233,-0.01395 -0.0053,-0.0095 -0.01745,-0.01303 -0.03806,-0.01107 -0.03673,0.0035 -0.03221,0.02032 0.0057,0.02126 0.05399,0.0013 0.06809,0.03018 0.01493,0.03053 -0.05571,3.65e-4 -0.109094,0.01638 -0.194903,0.05846 -0.107777,0.05286 -0.174655,0.104238 -0.244135,0.187541 -0.05862,0.07028 -0.07211,0.09516 -0.108492,0.200168 -0.02879,0.08309 -0.02989,0.217578 -0.0025,0.309546 0.03311,0.111269 0.06964,0.170486 0.159854,0.259183 0.09188,0.09033 0.135968,0.119006 0.246342,0.160226 0.133581,0.04989 0.166401,0.05356 0.287707,0.03221 z M 9.5467346,70.702696 c 0.015406,-0.0077 0.026072,-0.01711 0.023703,-0.02094 -0.00592,-0.0096 -0.050595,-1.67e-4 -0.06433,0.01358 -0.024943,0.02494 -0.00269,0.02898 0.040627,0.0074 z m -0.00316,-0.0657 c 0.00301,-0.0049 0.00125,-0.0089 -0.0039,-0.0089 -0.00516,0 -0.00938,0.004 -0.00938,0.0089 0,0.0049 0.00176,0.0089 0.0039,0.0089 0.00215,0 0.00637,-0.004 0.00938,-0.0089 z M 10.82704,70.530932 c 0.01299,-0.01435 0.01384,-0.01998 0.0047,-0.03098 -0.02117,-0.02551 -0.06211,-0.01035 -0.06211,0.023 0,0.02803 0.03486,0.03288 0.05739,0.008 z M 8.4694427,70.256557 c 0.0022,-0.0162 -0.00164,-0.02281 -0.014727,-0.02537 -0.00974,-0.0019 -0.020389,-0.0077 -0.02367,-0.01293 -0.00407,-0.0065 -0.010613,-0.0056 -0.020607,0.0027 -0.013441,0.01116 -0.012963,0.01342 0.00582,0.02759 0.015238,0.01149 0.022409,0.01277 0.028081,0.005 0.00482,-0.0066 0.00568,-0.0045 0.00233,0.0058 -0.00621,0.01913 0.00246,0.03724 0.012706,0.02653 0.0039,-0.0041 0.00843,-0.01727 0.010067,-0.02932 z m 4.0562873,-0.0667 c 0.0325,-0.01358 0.073,-0.06442 0.07748,-0.09729 0.0035,-0.02577 -0.01673,-0.07949 -0.03681,-0.09766 -0.01648,-0.01492 -0.01902,-0.01494 -0.05057,-4.82e-4 -0.04153,0.01903 -0.126169,0.0966 -0.126169,0.115639 0,0.03096 0.06152,0.09165 0.09408,0.09281 0.0055,2.01e-4 0.02438,-0.0057 0.04198,-0.01302 z m -0.412282,-0.346625 c 0.003,-0.02008 -0.01918,-0.04287 -0.03324,-0.03418 -0.01251,0.0077 -0.01168,0.0341 0.0015,0.04727 0.01444,0.01444 0.02852,0.0086 0.03174,-0.01309 z m 0.700438,0.01475 c 0.0037,0 0.01118,-0.0098 0.01664,-0.02179 0.01214,-0.02665 -0.0011,-0.07175 -0.02478,-0.08443 -0.03278,-0.01754 -0.08002,0.04562 -0.06635,0.08871 0.0052,0.01631 0.03349,0.02677 0.05599,0.0207 0.0065,-0.0018 0.01481,-0.0032 0.0185,-0.0032 z m -0.114794,-0.968859 c 0.0088,-0.01059 0.0029,-0.01668 -0.03403,-0.03541 -0.05609,-0.02842 -0.06684,-0.02897 -0.05326,-0.0027 0.02564,0.04958 0.06391,0.06629 0.08729,0.03812 z M 11.840805,68.31321 c 0,-0.02191 -0.004,-0.03984 -0.0089,-0.03984 -0.0049,0 -0.0089,0.01793 -0.0089,0.03984 0,0.02191 0.004,0.03984 0.0089,0.03984 0.0049,0 0.0089,-0.01793 0.0089,-0.03984 z m -0.05298,0.01107 c 6.7e-5,-0.01095 0.0038,-0.0257 0.0083,-0.03277 0.0045,-0.0071 0.0058,-0.01657 0.003,-0.02111 -0.0069,-0.01118 -0.02843,0.02907 -0.02883,0.05389 -1.67e-4,0.01095 0.0037,0.01992 0.0085,0.01992 0.0049,0 0.0089,-0.009 0.009,-0.01992 z m 0.05715,-0.07175 c 0.01017,-0.0074 0.01426,-0.01761 0.01075,-0.02676 -0.007,-0.01816 -0.03235,-0.02893 -0.04016,-0.01704 -0.0093,0.01416 -0.06148,0.02127 -0.06588,0.009 -0.0021,-0.0059 -0.0072,-0.0075 -0.01138,-0.0037 -0.01233,0.01155 0.0095,0.03678 0.03704,0.04279 0.04139,0.009 0.05229,0.0084 0.06962,-0.0043 z"
       id="path1" /></g></svg>
